<svg xmlns="http://www.w3.org/2000/svg" width="512" height="512" viewBox="0 0 512 512"><path d="M117.026,2.5A114.526,114.526,0,0,1,231.553,117.026V231.553H117.026a114.526,114.526,0,1,1,0-229.053Zm60.632,175.158V117.026a60.632,60.632,0,1,0-60.632,60.632ZM117.026,285.447H231.553V399.974A114.526,114.526,0,1,1,117.026,285.447Zm0,53.895a60.632,60.632,0,1,0,60.632,60.632V339.342ZM399.974,2.5a114.526,114.526,0,0,1,0,229.053H285.447V117.026A114.526,114.526,0,0,1,399.974,2.5Zm0,175.158a60.632,60.632,0,1,0-60.632-60.632v60.632ZM285.447,285.447H399.974A114.526,114.526,0,1,1,285.447,399.974Zm53.895,53.895v60.632a60.632,60.632,0,1,0,60.632-60.632Z" transform="translate(-2.5 -2.5)"/></svg>