<svg xmlns="http://www.w3.org/2000/svg" width="512" height="511.975" viewBox="0 0 512 511.975"><path d="M441.739,163.885h24.716A46.546,46.546,0,0,1,513,210.43v93.091a46.546,46.546,0,0,1-46.546,46.545H441.739A186.205,186.205,0,0,1,257,512.976V466.43A139.636,139.636,0,0,0,396.636,326.794V187.158a139.636,139.636,0,0,0-279.273,0V350.067H47.545A46.545,46.545,0,0,1,1,303.521V210.43a46.546,46.546,0,0,1,46.545-46.545H72.261a186.205,186.205,0,0,1,369.478,0ZM47.545,210.43v93.091H70.818V210.43Zm395.636,0v93.091h23.273V210.43ZM158.324,345.063l24.669-39.471a139.768,139.768,0,0,0,148.015,0l24.669,39.471a186.314,186.314,0,0,1-197.353,0Z" transform="translate(-1 -1.001)" fill="#2b2b2b"/></svg>