<svg xmlns="http://www.w3.org/2000/svg" width="276.814" height="512" viewBox="0 0 276.814 512"><path d="M288.467.107,222.072,0c-74.593,0-122.8,49.457-122.8,126v58.1H32.517a10.441,10.441,0,0,0-10.44,10.445V278.72a10.44,10.44,0,0,0,10.44,10.44H99.274v212.4A10.436,10.436,0,0,0,109.714,512h87.1a10.44,10.44,0,0,0,10.44-10.44V289.16h78.055a10.436,10.436,0,0,0,10.44-10.44l.032-84.175A10.448,10.448,0,0,0,285.335,184.1H207.253V134.851c0-23.671,5.641-35.688,36.476-35.688l44.727-.016a10.439,10.439,0,0,0,10.435-10.44V10.546A10.443,10.443,0,0,0,288.467.107Z" transform="translate(-22.077)" fill="#cbcbcb"/></svg>