<svg xmlns="http://www.w3.org/2000/svg" width="512" height="512" viewBox="0 0 512 512"><path d="M315.889,202.111V315.889H202.111V202.111Zm56.889,0H515V315.889H372.778ZM315.889,515H202.111V372.778H315.889Zm56.889,0V372.778H515V486.556A28.444,28.444,0,0,1,486.556,515ZM315.889,3V145.222H202.111V3Zm56.889,0H486.556A28.444,28.444,0,0,1,515,31.444V145.222H372.778ZM145.222,202.111V315.889H3V202.111Zm0,312.889H31.444A28.444,28.444,0,0,1,3,486.556V372.778H145.222Zm0-512V145.222H3V31.444A28.444,28.444,0,0,1,31.444,3Z" transform="translate(-3 -3)"/></svg>