<svg xmlns="http://www.w3.org/2000/svg" width="512" height="512" viewBox="0 0 512 512"><path d="M258,181.2A76.8,76.8,0,1,0,334.8,258,76.8,76.8,0,0,0,258,181.2Zm0-51.2A128,128,0,1,1,130,258,128,128,0,0,1,258,130Zm166.4-6.4a32,32,0,1,1-32-32A32,32,0,0,1,424.4,123.6ZM258,53.2c-63.334,0-73.677.179-103.142,1.485-20.07.947-33.536,3.635-46.029,8.5a73.892,73.892,0,0,0-27.648,18,73.984,73.984,0,0,0-18.022,27.648c-4.864,12.544-7.552,25.984-8.474,46.029C53.354,183.12,53.2,193,53.2,258c0,63.334.179,73.677,1.485,103.142.947,20.045,3.635,33.536,8.474,46a79.6,79.6,0,0,0,45.619,45.645c12.646,4.89,26.112,7.6,46.08,8.525C183.12,462.646,193,462.8,258,462.8c63.334,0,73.677-.179,103.142-1.485,20.019-.947,33.51-3.635,46-8.474a74.775,74.775,0,0,0,27.648-17.971,74.017,74.017,0,0,0,18.022-27.648c4.864-12.621,7.578-26.112,8.5-46.08C462.646,332.88,462.8,323,462.8,258c0-63.334-.179-73.677-1.485-103.142-.947-20.019-3.635-33.536-8.5-46.029a74.521,74.521,0,0,0-18-27.648,73.831,73.831,0,0,0-27.648-18.022c-12.544-4.864-26.01-7.552-46.029-8.474C332.88,53.354,323,53.2,258,53.2ZM258,2c69.555,0,78.234.256,105.523,1.536,27.264,1.28,45.824,5.555,62.157,11.9a124.815,124.815,0,0,1,45.363,29.517A125.645,125.645,0,0,1,500.56,90.32c6.323,16.307,10.624,34.893,11.9,62.157C513.667,179.766,514,188.445,514,258s-.256,78.234-1.536,105.523c-1.28,27.264-5.581,45.824-11.9,62.157a130.7,130.7,0,0,1-74.88,74.88c-16.307,6.323-34.893,10.624-62.157,11.9C336.234,513.667,327.555,514,258,514s-78.234-.256-105.523-1.536c-27.264-1.28-45.824-5.581-62.157-11.9a125.184,125.184,0,0,1-45.363-29.517A125.543,125.543,0,0,1,15.44,425.68c-6.349-16.307-10.624-34.893-11.9-62.157C2.333,336.234,2,327.555,2,258s.256-78.234,1.536-105.523,5.555-45.824,11.9-62.157A124.928,124.928,0,0,1,44.957,44.957,125.363,125.363,0,0,1,90.32,15.44c16.333-6.349,34.867-10.624,62.157-11.9C179.766,2.333,188.445,2,258,2Z" transform="translate(-2 -2)"/></svg>