<svg xmlns="http://www.w3.org/2000/svg" width="512" height="489.245" viewBox="0 0 512 489.245"><path d="M512,309.514V498.8H402.262V322.191c0-44.366-15.872-74.645-55.594-74.645-30.322,0-48.367,20.405-56.306,40.144-2.895,7.057-3.64,16.878-3.64,26.756V498.8H176.947s1.478-299.122,0-330.114H286.711v46.792c-.223.35-.512.727-.721,1.067h.721v-1.067c14.583-22.461,40.627-54.547,98.922-54.547C457.857,160.933,512,208.115,512,309.514ZM62.117,9.558C24.563,9.558,0,34.19,0,66.583c0,31.686,23.853,57.066,60.66,57.066h.733c38.281,0,62.089-25.375,62.089-57.066C122.761,34.19,99.675,9.558,62.117,9.558ZM6.52,498.8H116.253V168.689H6.52Z" transform="translate(0 -9.558)" fill="#cbcbcb"/></svg>