<svg xmlns="http://www.w3.org/2000/svg" width="512" height="511.993" viewBox="0 0 512 511.993"><path d="M184.077,221.507A300.258,300.258,0,0,0,296.49,333.918L321.635,298.7a28.445,28.445,0,0,1,36.807-8.419,324.9,324.9,0,0,0,130.361,38.8A28.444,28.444,0,0,1,515,357.441V484.358a28.446,28.446,0,0,1-25.549,28.3,441.171,441.171,0,0,1-45.562,2.332C200.4,514.993,3,317.591,3,74.11A441.16,441.16,0,0,1,5.332,28.543,28.444,28.444,0,0,1,33.635,3H160.554a28.445,28.445,0,0,1,28.359,26.2,324.884,324.884,0,0,0,38.8,130.356,28.444,28.444,0,0,1-8.42,36.807ZM112.34,202.819l54.044-38.6a381.432,381.432,0,0,1-31.2-104.333H60.173C60,64.61,59.917,69.36,59.917,74.11,59.889,286.189,231.807,458.1,443.889,458.1c4.75,0,9.5-.085,14.222-.284V382.813a381.442,381.442,0,0,1-104.334-31.2l-38.6,54.044a353.911,353.911,0,0,1-45.17-21.333l-1.65-.939A357.145,357.145,0,0,1,134.612,249.638l-.939-1.65a353.9,353.9,0,0,1-21.333-45.169Z" transform="translate(-3 -3)" fill="#2b2b2b"/></svg>