<svg xmlns="http://www.w3.org/2000/svg" width="505.173" height="512" viewBox="0 0 505.173 512"><path d="M50.762,343.333V50.762H2V2H75.143A24.381,24.381,0,0,1,99.524,26.381V318.952h303.25L451.536,123.9H148.286V75.143H482.792a24.381,24.381,0,0,1,23.65,30.306L445.49,349.258a24.381,24.381,0,0,1-23.65,18.456H75.143A24.381,24.381,0,0,1,50.762,343.333ZM99.524,514a48.762,48.762,0,1,1,48.762-48.762A48.762,48.762,0,0,1,99.524,514ZM392.1,514a48.762,48.762,0,1,1,48.762-48.762A48.762,48.762,0,0,1,392.1,514Z" transform="translate(-2 -2)" fill="#2b2b2b"/></svg>