<svg xmlns="http://www.w3.org/2000/svg" width="512" height="415.89" viewBox="0 0 512 415.89"><path d="M512,106.647a209.741,209.741,0,0,1-60.309,16.541,105.468,105.468,0,0,0,46.167-58.069,211.752,211.752,0,0,1-66.74,25.5,105.113,105.113,0,0,0-178.974,95.758A298.192,298.192,0,0,1,35.674,76.637a105.154,105.154,0,0,0,32.506,140.2A105.042,105.042,0,0,1,20.6,203.653v1.312a105.137,105.137,0,0,0,84.24,102.989,106.388,106.388,0,0,1-27.675,3.679A100.792,100.792,0,0,1,57.4,309.681a105.087,105.087,0,0,0,98.094,72.947,210.729,210.729,0,0,1-130.44,44.888A223.2,223.2,0,0,1,0,426.076,296.891,296.891,0,0,0,161,473.331c193.212,0,298.824-160.034,298.824-298.823l-.352-13.6A209.731,209.731,0,0,0,512,106.647Z" transform="translate(-0.001 -57.441)" fill="#cbcbcb"/></svg>