<svg id="Logo" xmlns="http://www.w3.org/2000/svg" width="73.024" height="53.703" viewBox="0 0 73.024 53.703">
  <path id="Path_11663" data-name="Path 11663" d="M105.017,70.732l5.791,6.4a1.137,1.137,0,0,0,1.122.344l7.145-1.719V67l-13.812,2.987a.461.461,0,0,0-.335.3A.455.455,0,0,0,105.017,70.732Z" transform="translate(-63.166 -62.187)" fill="#00b55b"/>
  <path id="Path_11664" data-name="Path 11664" d="M124.49,67v8.761l6.674-1.6a.339.339,0,0,0,.253-.239.334.334,0,0,0-.094-.334Z" transform="translate(-68.573 -62.187)" fill="#02c865"/>
  <path id="Path_11665" data-name="Path 11665" d="M66.056,94.819c-.3-.53-.63-.716-.992-.645a4.769,4.769,0,0,1-1,.064H63.95c-.9.3-1.759.623-2.541.967s-1.5.673-2.208,1-1.412.673-2.085,1.01c-.4.193-.811.387-1.238.566.637-1.232,1.245-2.514,1.81-3.818.688-1.6,1.361-3.274,2-4.971a2.193,2.193,0,0,0,.224-1.662,1,1,0,0,0-1.079-.53,7.682,7.682,0,0,0-2.758.652,30.322,30.322,0,0,0-3.178,1.5c-1.042.566-2.02,1.117-2.9,1.633s-1.484.91-1.918,1.146a3.176,3.176,0,0,0-.724.716.526.526,0,0,0,.065.716.73.73,0,0,0,.543.122h.319a19.066,19.066,0,0,0,3.431-1.175c1.042-.473,1.976-.924,2.78-1.34s1.448-.766,2.012-1.053c.167-.093.3-.15.405-.2a14.355,14.355,0,0,1-.767,2.357c-.413,1-.89,2.027-1.4,3.03s-1.079,2.027-1.665,3.016-1.129,1.92-1.629,2.787a.568.568,0,0,0,0,.716,2.292,2.292,0,0,0,.42.48,2.559,2.559,0,0,0,.6.38,1.606,1.606,0,0,0,.68.165h.087l.08-.043a30.551,30.551,0,0,0,3.163-1.855c1-.652,1.991-1.3,2.99-1.927s1.991-1.225,3.04-1.8a24.086,24.086,0,0,1,3.381-1.468l.4-.143Z" transform="translate(-47.246 -67.799)" fill="#00b55b"/>
  <path id="Path_11666" data-name="Path 11666" d="M89.115,74.56c.1-.43.224-.946.376-1.54s.3-1.261.442-1.941.253-1.318.355-1.927v-2.8a4.3,4.3,0,0,0-3.019-4.076,3.377,3.377,0,0,0-2.172.215,4.986,4.986,0,0,0-1.81,1.433,12.282,12.282,0,0,0-1.375,2.149A15.238,15.238,0,0,0,80.906,68.5a11.413,11.413,0,0,0-.507,2.414,17.372,17.372,0,0,0-.239,2.221c-.051.946-.08,1.977-.1,3.066s0,2.149,0,3.252a17.671,17.671,0,0,0,.072,2.02l-.369.05a3.909,3.909,0,0,0-.956.308,9.811,9.811,0,0,0-.919.48c-.326.186-.724.43-1.216.716l-.08.057c-.246.2-.623.544-1.137,1.017s-1.079,1.053-1.672,1.7-1.158,1.34-1.737,2.106A13.585,13.585,0,0,0,70.6,90.269a6.913,6.913,0,0,0-.673,2.457,3.356,3.356,0,0,0,.673,2.357l.094.107a2.992,2.992,0,0,0,3.127.566,9.927,9.927,0,0,0,3.062-1.776,24.85,24.85,0,0,0,2.9-2.787l1.354-1.576c.087.473.159.917.217,1.325.116.838.232,1.626.333,2.378s.21,1.511.326,2.249.29,1.576.492,2.457l.051.143c.282.595.492,1,.637,1.254a1.019,1.019,0,0,0,.724.559h.116a1,1,0,0,0,.724-.315l.232-.222V99.13c0-.716-.13-1.805-.282-3.13s-.319-2.672-.485-4.047-.311-2.636-.427-3.818c-.1-.967-.159-1.7-.174-2.206a17.683,17.683,0,0,0,1.672-2.385c.579-1,1.115-2.013,1.578-3.016s.869-1.97,1.209-2.865.615-1.64.825-2.228C88.934,75.319,89.006,75.033,89.115,74.56ZM74.637,92.217a4.076,4.076,0,0,1-.528.372,4,4,0,0,1-.659.322h-.065a.335.335,0,0,1-.072-.143,1.837,1.837,0,0,1-.051-.451v-.337a21.833,21.833,0,0,1,.919-1.991,11.29,11.29,0,0,1,1.882-2.421c.724-.716,1.346-1.347,1.853-1.791a13.366,13.366,0,0,1,1.274-1,2.645,2.645,0,0,1,.724-.38,1.161,1.161,0,0,1,.217-.043,1.556,1.556,0,0,1,.282,1.246A4.992,4.992,0,0,1,79.5,87.5,13.338,13.338,0,0,1,77.764,89.4c-.68.63-1.267,1.2-1.745,1.7l-.782.609c-.239.186-.449.351-.637.5ZM85.126,77.3c-.5,1.024-.956,1.948-1.361,2.665a8.415,8.415,0,0,1-.63,1.017c-.043-.244-.08-.523-.109-.824-.051-.473-.072-.96-.08-1.361.1-1,.174-1.87.21-2.572s.058-1.332.072-1.92.051-1.11.1-1.633a16.08,16.08,0,0,1,.268-1.741,13.159,13.159,0,0,1,.485-1.755,11.156,11.156,0,0,1,.811-1.87A6.169,6.169,0,0,1,85.9,65.9a.828.828,0,0,1,.6-.322h.123c.1,0,.29.287.391.989a14.978,14.978,0,0,1,0,3.374,27.054,27.054,0,0,1-.724,4.026A18.079,18.079,0,0,1,85.126,77.3Z" transform="translate(-53.503 -60.821)" fill="#2b2b2b"/>
  <path id="Path_11667" data-name="Path 11667" d="M116.487,89.139a6.7,6.7,0,0,0-1.716-1.2,15.565,15.565,0,0,0-2.172-.888,17.809,17.809,0,0,0-2.367-.609,15.919,15.919,0,0,0-2.222-.287h-.478l-.21.423a1.143,1.143,0,0,1-.239.265H106.9a13.523,13.523,0,0,0-3.67.244h0a7.943,7.943,0,0,0-2.729,1.132A6.915,6.915,0,0,0,98.65,90.02a2.568,2.568,0,0,0-.058-.673,9.106,9.106,0,0,0-.159-1.332c-.072-.473-.166-1.067-.3-1.841l-.065-.38-.347-.15-1.1-.487a1.1,1.1,0,0,0-1.129.043.948.948,0,0,0-.362.917c.2,1.97.434,4.2.724,6.691a75.85,75.85,0,0,1,.275,8.832,1.069,1.069,0,0,0,.8,1.024,2.017,2.017,0,0,0,.659.107,1.667,1.667,0,0,0,.326,0,2.839,2.839,0,0,0,.84-.229,1.037,1.037,0,0,0,.637-1.168,5.672,5.672,0,0,1-.065-1.218l.051-1.805c0-.609.051-1.182.1-1.712s.08-.9.116-1.189c.188-.559.442-1.182.724-1.848a8.282,8.282,0,0,1,1.165-1.862A7.884,7.884,0,0,1,103.2,90.2a5.828,5.828,0,0,1,2.259-.86,3.4,3.4,0,0,0,1.6-.552l.094.122c.043.05.08.107.123.165a27.719,27.719,0,0,0-.319,3.231,45.489,45.489,0,0,0,.058,4.807,8.224,8.224,0,0,0,.3,1.554,7.3,7.3,0,0,0,.724,1.762,4.952,4.952,0,0,0,1.448,1.5,3.91,3.91,0,0,0,2.288.659,2.826,2.826,0,0,0,1.933-.967,9.52,9.52,0,0,0,1.535-2.056,18.19,18.19,0,0,0,1.238-2.686,17.381,17.381,0,0,0,.818-2.865,9.884,9.884,0,0,0,.167-2.679A3.165,3.165,0,0,0,116.487,89.139Zm-4.51,9.384a1.375,1.375,0,0,1-.521.365.731.731,0,0,1-.384,0,1.163,1.163,0,0,1-.376-.2,3.383,3.383,0,0,1-.282-.287,4.766,4.766,0,0,1-.275-1.067,14.088,14.088,0,0,1-.188-2.192,18.993,18.993,0,0,1,.166-2.83A17.822,17.822,0,0,1,110.6,89.9l1.042.287c.413.107.724.215,1.035.308a3.638,3.638,0,0,1,.565.251l.644.408a1.713,1.713,0,0,1,.463.9,4.75,4.75,0,0,1,0,1.8,8.694,8.694,0,0,1-.724,2.321A8.594,8.594,0,0,1,111.977,98.523Z" transform="translate(-60.461 -67.298)" fill="#2b2b2b"/>
  <path id="Path_11668" data-name="Path 11668" d="M142.038,89.694h0a3.507,3.507,0,0,0-.557-.989,2.563,2.563,0,0,0-.724-.616c-.188-.107-.355-.186-.528-.279a3.757,3.757,0,0,0-2.541-.208,7.272,7.272,0,0,0-2.28,1.082,11.664,11.664,0,0,0-2.041,1.812,19.376,19.376,0,0,0-1.687,2.106c-.232.33-.442.659-.63.974-.123-1.189-.246-2.206-.355-3.044a20.009,20.009,0,0,0-.615-3.18l-.051-.172-.123-.122a7.129,7.129,0,0,0-.688-.595,2.446,2.446,0,0,0-1.643-.315l-.854.05.2.824c.094.423.188.867.268,1.318s.152.881.2,1.268l.13,1a3.455,3.455,0,0,0,.043.415v.107c.13.817.239,1.991.326,3.489s.159,3.2.224,5.014.13,3.653.181,5.559.08,3.646.094,5.229.036,2.908.051,3.961,0,1.619,0,1.719v2.865a12.446,12.446,0,0,0,.08,1.318.925.925,0,0,0,.644.9l.55.072h0c.159,0,.3.043.434.05h.094a1.156,1.156,0,0,0,1.115-.881,6.255,6.255,0,0,0,.181-1.655v-3.152c0-1.383-.051-3.173-.1-5.351-.043-1.984-.065-4.448-.072-7.35a7.99,7.99,0,0,0,2.628-.587,13.054,13.054,0,0,0,3.735-2.285,14.479,14.479,0,0,0,3.069-3.746,10.865,10.865,0,0,0,1.412-5.064A4.141,4.141,0,0,0,142.038,89.694Zm-5.972,2.149a11.587,11.587,0,0,1,1.665-1.132,1.037,1.037,0,0,1,1.165.115s.145.165.145.867a6.349,6.349,0,0,1-.557,2.357h0a9.79,9.79,0,0,1-1.824,2.779,9.069,9.069,0,0,1-3.417,2.278,4.136,4.136,0,0,1-1.122.344,1.7,1.7,0,0,1-.594,0h-.036a5.516,5.516,0,0,1,.5-1.583,19.341,19.341,0,0,1,1.339-2.521c.528-.809,1.064-1.562,1.585-2.221a11.459,11.459,0,0,1,1.151-1.3Z" transform="translate(-69.188 -67.609)" fill="#2b2b2b"/>
  <ellipse id="Ellipse_455" data-name="Ellipse 455" cx="1.708" cy="1.691" rx="1.708" ry="1.691" transform="translate(55.562)" fill="#00b55b"/>
</svg>
